<?xml version="1.0" standalone="no"?><!DOCTYPE svg PUBLIC "-//W3C//DTD SVG 1.1//EN" "http://www.w3.org/Graphics/SVG/1.1/DTD/svg11.dtd"><svg t="1707709382410" class="icon" viewBox="0 0 1820 1024" version="1.1" xmlns="http://www.w3.org/2000/svg" p-id="1499" xmlns:xlink="http://www.w3.org/1999/xlink" width="355.46875" height="200"><path d="M969.358222 340.015407c27.742815 0 49.929481-33.289481 49.929482-72.125629 0-38.836148-22.196148-72.12563-49.929482-72.12563-27.742815 0-49.929481 33.289481-49.929481 72.12563 0 38.836148 22.196148 72.12563 49.929481 72.125629zM980.461037 534.196148c33.289481 0 61.032296-27.742815 61.032296-61.032296s-27.742815-61.022815-61.032296-61.022815-61.022815 27.742815-61.022815 61.022815c-0.009481 33.289481 27.733333 61.032296 61.022815 61.032296zM1685.05837 606.321778c-5.546667 0-11.093333-5.546667-16.64-5.546667s-11.093333 0-16.64 5.546667c-11.093333 5.546667-22.196148 16.649481-22.196148 27.733333v5.546667c-5.546667 55.48563-44.382815 138.704593-188.634074 138.704592-194.180741 0-194.180741-61.032296-194.180741-194.18074V356.655407l94.312297-11.093333v282.955852c0 27.733333 22.196148 44.382815 44.382815 44.382815 27.733333 0 49.929481-22.196148 49.929481-44.382815V334.459259l83.218963-11.093333h27.742815c11.093333 0 16.64 5.546667 22.196148 11.093333 5.546667 5.546667 11.093333 16.649481 11.093333 33.289482v77.672296c0 38.836148-16.64 77.672296-61.022815 83.218963h-5.546666c-5.546667 0-11.093333 5.546667-16.64 5.546667-11.093333 5.546667-22.196148 22.196148-22.196148 38.836148 0 16.649481 5.546667 27.742815 22.196148 38.836148 5.546667 5.546667 16.64 11.093333 27.742815 11.093333h11.093333c44.382815-5.546667 83.218963-38.836148 94.312296-61.032296 22.196148-27.742815 38.836148-77.672296 38.836148-122.055111v-72.12563c0-38.836148-11.093333-66.578963-22.196148-88.765629-22.196148-27.742815-55.48563-44.382815-94.312296-44.382815-11.093333 0-27.742815 0-49.929482 5.546666l-66.578963 5.546667v-49.929481c0-27.742815-22.196148-44.382815-49.929481-44.382815-27.742815 0-44.382815 22.196148-44.382815 44.382815v61.032296l-94.312296 11.093333v-55.485629c0-22.196148-22.196148-44.382815-44.382815-44.382815-22.196148 0-44.382815 22.196148-44.382815 44.382815v61.032296l-38.836148 5.546667h-11.093333c-5.546667 0-11.093333 5.546667-16.64 11.093333-11.093333 11.093333-16.64 22.186667-16.64 38.836148 0 16.64 5.546667 27.742815 16.64 38.836148h27.742815l33.289481-5.546666v227.470222c0 127.601778 0 282.94637 282.94637 282.94637 216.376889 0 266.30637-138.704593 277.399704-216.376889v-11.093333c-0.018963-16.630519-11.121778-33.270519-27.761778-38.817185z" p-id="1500"></path><path d="M1069.226667 667.344593c-11.093333 0-22.196148 5.546667-33.289482 11.093333-61.032296 61.032296-138.704593 94.321778-221.923555 94.321778-149.797926 0-277.399704-105.415111-305.142519-249.666371h271.853037c22.196148 0 44.382815-22.196148 44.382815-44.382814 0-22.186667-22.196148-44.382815-44.382815-44.382815H492.231111V284.529778h277.399704c22.196148 0 44.382815-22.196148 44.382815-44.382815 0-22.196148-16.649481-44.382815-44.382815-44.382815H131.612444c-22.186667 0-44.382815 22.196148-44.382814 44.382815 0 22.196148 22.196148 44.382815 44.382814 44.382815h271.853037v155.344592H114.972444c-22.196148 0-44.382815 22.196148-44.382814 44.382815 0 22.196148 22.196148 44.382815 44.382814 44.382815h277.399704c-11.093333 49.929481-27.742815 77.672296-49.929481 105.415111-33.289481 55.48563-83.218963 94.321778-149.797926 122.055111-27.742815 11.093333-55.48563 22.196148-83.218963 27.742815h-5.546667c-22.196148 5.546667-33.289481 22.186667-33.289481 44.382815 0 22.196148 22.196148 44.382815 44.382814 44.382815h11.093334c11.093333 0 22.196148-5.546667 33.289481-5.546667 49.929481-11.093333 94.321778-27.742815 138.704593-55.476148 38.836148-27.733333 72.12563-55.476148 99.868444-88.76563 16.64-16.64 33.289481-44.382815 55.476148-83.218963 66.578963 138.704593 210.830222 233.016889 366.174815 233.016889 105.415111 0 210.830222-44.382815 282.946371-116.508444 5.546667 0 5.546667-5.546667 5.546666-5.546667 5.546667-5.546667 11.093333-16.64 11.093334-27.742815-0.009481-33.289481-22.196148-55.48563-49.938963-55.485629z" p-id="1501"></path></svg>