<?xml version="1.0" encoding="UTF-8"?>
<svg version="1.1" viewBox="0 0 323 208" xmlns="http://www.w3.org/2000/svg">
<path fill="#615CED" d="M135.2,63.6h-12.1l17.1-24.3c2.1-2.9,0-7-3.6-7H48.5l8.8,15.3h57l-11.2,16H88.5l-8-13.8H62
	l7.9,13.7H48.3v90.3h17.9V132h20.3v21.8h17.9V132h20.3v21.8h17.9v-83C142.5,66.8,139.3,63.6,135.2,63.6L135.2,63.6z M66.2,78.8h20.3
	v11.3H66.2V78.8z M86.5,116.8H66.2v-11.3l20.3-0.1V116.8L86.5,116.8z M124.7,116.8h-20.3v-11.3h20.3V116.8z M124.7,90.2h-20.3V78.8
	h20.3V90.2z M16.9,54.2L2.8,29.7h18.4l14.1,24.5H16.9z M98.7,162.5h59.9l-8.9,15.5H97.6H65.4c-8.3,0-13.2-1-17.9-2.7
	c-4.9-1.8-5.7-2.3-9.9-4.6c-3.6-2-7.1-4.9-10.5-8.6c-0.9-0.9-1.6-1.9-2.3-3l-0.2-0.3L2.8,178.1v-24l13.4-11.5V82.7H0.5V67.1H29
	c2.8,0,5.1,2.3,5.1,5.1v67.9c0,0,0.2,5.3,3.8,9.8c1.8,2.1,3.5,3.7,5.4,5.1c3.3,2.3,7.2,3.6,11.4,4.9c4.9,1.5,10.1,2.3,17.7,2.7
	C78.2,162.7,87.1,162.5,98.7,162.5L98.7,162.5z M312.6,177.9c-27.1-8.3-51.7-22.6-72.2-41.2c-19.6,17.1-42.7,30-67.4,37.9l-0.7,0.2
	c-0.1,0-0.4,0.1-0.4,0.1c-3.4,1.1-7.6,2.3-9.8,2.8l14-24.2c19.1-7.2,36.3-17.5,51.1-30.2c-20.9-22.9-36.3-50.9-44.1-81.7l-0.4-1.4
	h19.5l0.4,1.4c7.3,25.8,20.5,49.3,38.1,68.7c18-19.3,31.5-42.7,39.2-68.5l0.5-1.6h19.4l-0.4,1.6c-8.1,30.3-23.8,58.6-45.4,81.6
	c19.4,17.3,42.7,30.3,68.3,37.5L312.6,177.9L312.6,177.9z M236.3,58.8l-16.7-29h21.8l16.7,29H236.3z"/>
</svg>